<svg xmlns="http://www.w3.org/2000/svg" xmlns:xlink="http://www.w3.org/1999/xlink" width="1500" zoomAndPan="magnify" viewBox="0 0 1125 1124.99995" height="1500" preserveAspectRatio="xMidYMid meet" version="1.0"><defs><g/><clipPath id="434fa53ab9"><path d="M 144.890625 470 L 310.640625 470 L 310.640625 586 L 144.890625 586 Z M 144.890625 470 " clip-rule="nonzero"/></clipPath><clipPath id="5217047b97"><path d="M 144.890625 584 L 196 584 L 196 677 L 144.890625 677 Z M 144.890625 584 " clip-rule="nonzero"/></clipPath><clipPath id="491c712c2d"><path d="M 194 584 L 261 584 L 261 681.714844 L 194 681.714844 Z M 194 584 " clip-rule="nonzero"/></clipPath><clipPath id="b34e9cddfe"><path d="M 259 584 L 310.640625 584 L 310.640625 677 L 259 677 Z M 259 584 " clip-rule="nonzero"/></clipPath><clipPath id="e6b7be875b"><path d="M 144.890625 443.214844 L 310.640625 443.214844 L 310.640625 471 L 144.890625 471 Z M 144.890625 443.214844 " clip-rule="nonzero"/></clipPath></defs><g fill="#ff7a57" fill-opacity="1"><g transform="translate(329.197468, 648.151855)"><g><path d="M 62.207031 -26.03125 L 70.617188 0 L 93.308594 0 L 60.472656 -92.109375 L 34.574219 -92.109375 L 1.335938 0 L 23.628906 0 L 32.171875 -26.03125 Z M 47.253906 -73.953125 L 57 -42.449219 L 37.378906 -42.449219 Z M 47.253906 -73.953125 "/></g></g></g><g fill="#ff7a57" fill-opacity="1"><g transform="translate(414.625099, 648.151855)"><g><path d="M 76.488281 -53.394531 C 74.886719 -65.808594 66.210938 -73.019531 51.261719 -73.019531 C 44.585938 -73.019531 39.511719 -71.683594 34.707031 -68.480469 L 28.832031 -59.9375 L 28.832031 -71.148438 L 7.875 -71.148438 L 7.875 0 L 28.832031 0 L 28.832031 -32.972656 C 28.832031 -51.125 34.972656 -58.601562 43.25 -58.601562 C 51.394531 -58.601562 55.398438 -54.0625 55.933594 -46.855469 C 56.199219 -43.25 56.199219 -39.648438 56.199219 -36.976562 L 56.199219 0 L 77.15625 0 L 77.15625 -40.179688 C 77.15625 -45.921875 77.023438 -49.792969 76.488281 -53.394531 Z M 76.488281 -53.394531 "/></g></g></g><g fill="#ff7a57" fill-opacity="1"><g transform="translate(492.177331, 648.151855)"><g><path d="M 18.289062 -98.648438 C 11.613281 -98.648438 7.207031 -94.511719 7.207031 -88.101562 C 7.207031 -81.5625 11.613281 -77.425781 18.289062 -77.425781 C 24.960938 -77.425781 29.5 -81.5625 29.5 -88.101562 C 29.5 -94.511719 24.960938 -98.648438 18.289062 -98.648438 Z M 28.832031 0 L 28.832031 -71.148438 L 7.875 -71.148438 L 7.875 0 Z M 28.832031 0 "/></g></g></g><g fill="#ff7a57" fill-opacity="1"><g transform="translate(522.343703, 648.151855)"><g><path d="M 28.300781 -98.113281 L 7.34375 -98.113281 L 7.34375 -23.894531 C 7.34375 -18.957031 7.34375 -15.484375 7.609375 -12.015625 C 8.144531 -2.667969 14.015625 1.203125 24.027344 1.203125 C 28.699219 1.203125 32.570312 0.933594 36.578125 0.535156 L 36.578125 -13.75 C 30.300781 -13.484375 28.832031 -14.550781 28.433594 -17.753906 C 28.300781 -19.621094 28.300781 -21.226562 28.300781 -24.296875 Z M 28.300781 -98.113281 "/></g></g></g><g fill="#ff7a57" fill-opacity="1"><g transform="translate(554.512304, 648.151855)"><g/></g></g><g fill="#ff7a57" fill-opacity="1"><g transform="translate(572.665348, 648.151855)"><g><path d="M 79.695312 -16.417969 L 32.304688 -16.417969 L 32.304688 -38.042969 L 75.289062 -38.042969 L 75.289062 -54.332031 L 32.304688 -54.332031 L 32.304688 -75.820312 L 78.359375 -75.820312 L 78.359375 -92.109375 L 11.347656 -92.109375 L 11.347656 0 L 79.695312 0 Z M 79.695312 -16.417969 "/></g></g></g><g fill="#ff7a57" fill-opacity="1"><g transform="translate(649.550172, 648.151855)"><g><path d="M 117.472656 -55.265625 C 115.871094 -65.007812 107.992188 -73.019531 94.109375 -73.019531 C 87.703125 -73.019531 83.03125 -71.683594 78.890625 -68.878906 L 71.683594 -59.269531 C 68.746094 -67.144531 61.40625 -73.019531 49.523438 -73.019531 C 42.984375 -73.019531 38.445312 -71.683594 34.171875 -68.878906 L 28.832031 -60.070312 L 28.832031 -71.148438 L 7.875 -71.148438 L 7.875 0 L 28.832031 0 L 28.832031 -36.976562 C 28.832031 -51.527344 32.703125 -58.601562 40.714844 -58.601562 C 47.523438 -58.601562 51.125 -54.597656 52.0625 -47.523438 C 52.460938 -43.917969 52.59375 -40.046875 52.59375 -36.710938 L 52.59375 0 L 73.417969 0 L 73.417969 -36.976562 C 73.417969 -51.527344 77.425781 -58.601562 85.433594 -58.601562 C 92.109375 -58.601562 95.847656 -54.597656 96.648438 -47.523438 C 97.046875 -43.917969 97.179688 -40.046875 97.179688 -36.710938 L 97.179688 0 L 118.136719 0 L 118.136719 -42.050781 C 118.136719 -47.789062 118.003906 -51.660156 117.472656 -55.265625 Z M 117.472656 -55.265625 "/></g></g></g><g fill="#ff7a57" fill-opacity="1"><g transform="translate(768.081223, 648.151855)"><g><path d="M 52.460938 -73.019531 C 45.253906 -73.019531 38.179688 -71.417969 34.171875 -68.347656 L 28.832031 -60.472656 L 28.832031 -98.113281 L 7.875 -98.113281 L 7.875 0 L 28.832031 0 L 28.832031 -9.34375 L 33.507812 -1.867188 C 37.109375 0.402344 44.183594 1.867188 50.058594 1.867188 C 68.347656 1.867188 83.964844 -11.480469 83.964844 -37.109375 C 83.964844 -58.066406 72.085938 -73.019531 52.460938 -73.019531 Z M 45.121094 -12.546875 C 37.109375 -12.546875 28.832031 -17.886719 28.832031 -33.238281 L 28.832031 -36.441406 C 28.832031 -52.726562 36.175781 -58.601562 45.785156 -58.601562 C 55.664062 -58.601562 62.472656 -49.792969 62.472656 -35.773438 C 62.472656 -20.289062 55.265625 -12.546875 45.121094 -12.546875 Z M 45.121094 -12.546875 "/></g></g></g><g fill="#ff7a57" fill-opacity="1"><g transform="translate(848.837007, 648.151855)"><g><path d="M 74.753906 -36.84375 C 74.753906 -55.796875 63.007812 -73.019531 40.3125 -73.019531 C 17.753906 -73.019531 3.472656 -56.734375 3.472656 -35.375 C 3.472656 -10.277344 19.089844 1.867188 38.980469 1.867188 C 56.332031 1.867188 69.683594 -6.808594 73.554688 -23.226562 L 52.863281 -23.226562 C 51.660156 -16.554688 46.722656 -12.546875 39.378906 -12.546875 C 31.503906 -12.546875 25.628906 -16.554688 24.429688 -30.167969 L 74.355469 -30.167969 C 74.621094 -32.703125 74.753906 -34.972656 74.753906 -36.84375 Z M 39.378906 -58.601562 C 47.121094 -58.601562 51.792969 -53.394531 52.996094 -43.382812 L 24.960938 -43.382812 C 26.699219 -53.929688 31.902344 -58.601562 39.378906 -58.601562 Z M 39.378906 -58.601562 "/></g></g></g><g fill="#ff7a57" fill-opacity="1"><g transform="translate(920.649524, 648.151855)"><g><path d="M 28.300781 -98.113281 L 7.34375 -98.113281 L 7.34375 -23.894531 C 7.34375 -18.957031 7.34375 -15.484375 7.609375 -12.015625 C 8.144531 -2.667969 14.015625 1.203125 24.027344 1.203125 C 28.699219 1.203125 32.570312 0.933594 36.578125 0.535156 L 36.578125 -13.75 C 30.300781 -13.484375 28.832031 -14.550781 28.433594 -17.753906 C 28.300781 -19.621094 28.300781 -21.226562 28.300781 -24.296875 Z M 28.300781 -98.113281 "/></g></g></g><g fill="#000000" fill-opacity="1"><g transform="translate(350.505112, 514.312552)"><g><path d="M 16.171875 -26.734375 C 19.492188 -26.335938 22.164062 -25.0625 24.1875 -22.90625 C 26.21875 -20.75 27.234375 -17.710938 27.234375 -13.796875 C 27.234375 -9.847656 26.191406 -6.679688 24.109375 -4.296875 C 22.035156 -1.921875 19.363281 -0.539062 16.09375 -0.15625 C 15.1875 -0.0507812 14.046875 0 12.671875 0 L 3.46875 0 L 3.46875 -26.890625 L 12.75 -26.890625 C 14.125 -26.890625 15.265625 -26.835938 16.171875 -26.734375 Z M 14.890625 -4.359375 C 16.941406 -4.617188 18.5625 -5.566406 19.75 -7.203125 C 20.945312 -8.847656 21.546875 -11.019531 21.546875 -13.71875 C 21.546875 -16.3125 20.960938 -18.363281 19.796875 -19.875 C 18.628906 -21.382812 17.03125 -22.269531 15 -22.53125 C 14.195312 -22.632812 13.238281 -22.6875 12.125 -22.6875 L 8.84375 -22.6875 L 8.84375 -4.25 L 12.046875 -4.25 C 13.367188 -4.25 14.316406 -4.285156 14.890625 -4.359375 Z M 14.890625 -4.359375 "/></g></g></g><g fill="#000000" fill-opacity="1"><g transform="translate(382.886962, 514.312552)"><g><path d="M 18.046875 -8.109375 L 9 -8.109375 L 6.3125 0 L 0.578125 0 L 10.28125 -26.890625 L 17.03125 -26.890625 L 26.53125 0 L 20.6875 0 Z M 13.5625 -22.296875 L 10.359375 -12.359375 L 16.671875 -12.359375 Z M 13.5625 -22.296875 "/></g></g></g><g fill="#000000" fill-opacity="1"><g transform="translate(413.125673, 514.312552)"><g><path d="M 24.515625 -22.6875 L 15.390625 -22.6875 L 15.390625 0 L 10.015625 0 L 10.015625 -22.6875 L 0.890625 -22.6875 L 0.890625 -26.890625 L 24.515625 -26.890625 Z M 24.515625 -22.6875 "/></g></g></g><g fill="#000000" fill-opacity="1"><g transform="translate(441.299178, 514.312552)"><g><path d="M 18.046875 -8.109375 L 9 -8.109375 L 6.3125 0 L 0.578125 0 L 10.28125 -26.890625 L 17.03125 -26.890625 L 26.53125 0 L 20.6875 0 Z M 13.5625 -22.296875 L 10.359375 -12.359375 L 16.671875 -12.359375 Z M 13.5625 -22.296875 "/></g></g></g><g fill="#000000" fill-opacity="1"><g transform="translate(471.537889, 514.312552)"><g/></g></g><g fill="#000000" fill-opacity="1"><g transform="translate(482.994874, 514.312552)"><g><path d="M 18.046875 -8.109375 L 9 -8.109375 L 6.3125 0 L 0.578125 0 L 10.28125 -26.890625 L 17.03125 -26.890625 L 26.53125 0 L 20.6875 0 Z M 13.5625 -22.296875 L 10.359375 -12.359375 L 16.671875 -12.359375 Z M 13.5625 -22.296875 "/></g></g></g><g fill="#000000" fill-opacity="1"><g transform="translate(513.233592, 514.312552)"><g><path d="M 27.078125 0 L 19.71875 0 L 8.65625 -20.421875 C 8.78125 -17.972656 8.84375 -15.21875 8.84375 -12.15625 L 8.84375 0 L 3.46875 0 L 3.46875 -26.890625 L 10.59375 -26.890625 L 21.90625 -6.078125 C 21.769531 -8.492188 21.703125 -11.3125 21.703125 -14.53125 L 21.703125 -26.890625 L 27.046875 -26.890625 Z M 27.078125 0 "/></g></g></g><g fill="#000000" fill-opacity="1"><g transform="translate(546.745453, 514.312552)"><g><path d="M 18.046875 -8.109375 L 9 -8.109375 L 6.3125 0 L 0.578125 0 L 10.28125 -26.890625 L 17.03125 -26.890625 L 26.53125 0 L 20.6875 0 Z M 13.5625 -22.296875 L 10.359375 -12.359375 L 16.671875 -12.359375 Z M 13.5625 -22.296875 "/></g></g></g><g fill="#000000" fill-opacity="1"><g transform="translate(576.984171, 514.312552)"><g><path d="M 22.875 -4.484375 L 22.875 0 L 3.46875 0 L 3.46875 -26.890625 L 8.84375 -26.890625 L 8.84375 -4.484375 Z M 22.875 -4.484375 "/></g></g></g><g fill="#000000" fill-opacity="1"><g transform="translate(604.417317, 514.312552)"><g><path d="M 15.46875 -10.40625 L 15.46875 0 L 10.125 0 L 10.125 -10.40625 L 0.625 -26.890625 L 6.703125 -26.890625 L 12.984375 -15.15625 L 19.0625 -26.890625 L 24.984375 -26.890625 Z M 15.46875 -10.40625 "/></g></g></g><g fill="#000000" fill-opacity="1"><g transform="translate(632.707703, 514.312552)"><g><path d="M 12.390625 -27.4375 C 15.453125 -27.4375 17.796875 -26.664062 19.421875 -25.125 C 21.046875 -23.59375 22.015625 -21.546875 22.328125 -18.984375 L 16.828125 -18.984375 C 16.671875 -20.378906 16.203125 -21.46875 15.421875 -22.25 C 14.648438 -23.03125 13.578125 -23.421875 12.203125 -23.421875 C 11.078125 -23.421875 10.164062 -23.144531 9.46875 -22.59375 C 8.769531 -22.050781 8.421875 -21.257812 8.421875 -20.21875 C 8.421875 -19.082031 8.84375 -18.1875 9.6875 -17.53125 C 10.53125 -16.882812 12.015625 -16.316406 14.140625 -15.828125 C 17.078125 -15.148438 19.238281 -14.117188 20.625 -12.734375 C 22.019531 -11.359375 22.71875 -9.582031 22.71875 -7.40625 C 22.71875 -4.957031 21.753906 -3.019531 19.828125 -1.59375 C 17.910156 -0.164062 15.5625 0.546875 12.78125 0.546875 C 9.507812 0.546875 6.898438 -0.171875 4.953125 -1.609375 C 3.003906 -3.054688 1.898438 -5.171875 1.640625 -7.953125 L 7.125 -7.953125 C 7.414062 -6.523438 8.066406 -5.421875 9.078125 -4.640625 C 10.085938 -3.859375 11.296875 -3.46875 12.703125 -3.46875 C 13.953125 -3.46875 15 -3.78125 15.84375 -4.40625 C 16.6875 -5.03125 17.109375 -5.847656 17.109375 -6.859375 C 17.109375 -8.003906 16.695312 -8.925781 15.875 -9.625 C 15.0625 -10.320312 13.679688 -10.90625 11.734375 -11.375 C 8.710938 -12.101562 6.460938 -13.070312 4.984375 -14.28125 C 3.503906 -15.488281 2.765625 -17.25 2.765625 -19.5625 C 2.765625 -21.945312 3.695312 -23.851562 5.5625 -25.28125 C 7.4375 -26.71875 9.710938 -27.4375 12.390625 -27.4375 Z M 12.390625 -27.4375 "/></g></g></g><g fill="#000000" fill-opacity="1"><g transform="translate(660.296716, 514.312552)"><g><path d="M 24.515625 -22.6875 L 15.390625 -22.6875 L 15.390625 0 L 10.015625 0 L 10.015625 -22.6875 L 0.890625 -22.6875 L 0.890625 -26.890625 L 24.515625 -26.890625 Z M 24.515625 -22.6875 "/></g></g></g><g clip-path="url(#434fa53ab9)"><path fill="#ff7a57" d="M 130 470.007812 L 325.683594 470.007812 L 325.683594 585.15625 L 130 585.15625 Z M 130 470.007812 " fill-opacity="1" fill-rule="nonzero"/></g><g clip-path="url(#5217047b97)"><path fill="#ff7a57" d="M 195.238281 676.128906 L 195.238281 584.023438 L 130 584.023438 C 130 626.558594 157.238281 662.730469 195.238281 676.128906 Z M 195.238281 676.128906 " fill-opacity="1" fill-rule="nonzero"/></g><g clip-path="url(#491c712c2d)"><path fill="#ff7a57" d="M 260.441406 584.023438 L 194.535156 584.023438 L 194.535156 675.855469 C 204.75 679.449219 216.414062 681.675781 227.839844 681.675781 C 239.269531 681.675781 250.265625 679.722656 260.441406 676.128906 Z M 260.441406 584.023438 " fill-opacity="1" fill-rule="nonzero"/></g><g clip-path="url(#b34e9cddfe)"><path fill="#ff7a57" d="M 325.683594 584.023438 L 259.738281 584.023438 L 259.738281 676.363281 C 297.738281 662.964844 325.683594 626.558594 325.683594 584.023438 Z M 325.683594 584.023438 " fill-opacity="1" fill-rule="nonzero"/></g><g clip-path="url(#e6b7be875b)"><path fill="#ff7a57" d="M 130 443.214844 L 325.683594 443.214844 L 325.683594 470.984375 L 130 470.984375 Z M 130 443.214844 " fill-opacity="1" fill-rule="nonzero"/></g><g fill="#f6bb25" fill-opacity="1"><g transform="translate(184.44767, 605.730459)"><g><path d="M 97.046875 -21.109375 L 102.1875 -21.109375 L 102.1875 0 L 51.734375 0 L 51.734375 -21.109375 L 59.453125 -21.109375 L 57.40625 -31.40625 L 39.890625 -31.40625 L 37.84375 -21.109375 L 45.5625 -21.109375 L 45.5625 0 L 1.546875 0 L 1.546875 -21.109375 L 6.6875 -21.109375 L 28.4375 -100.125 L 75.296875 -100.125 Z M 42.734375 -45.046875 L 54.5625 -45.046875 L 49.296875 -70.65625 L 48 -70.65625 Z M 42.734375 -45.046875 "/></g></g></g></svg>